<svg width="24" height="12" viewBox="0 0 24 12" fill="none" xmlns="http://www.w3.org/2000/svg">
<g clip-path="url(#clip0_2002_342)">
<path opacity="0.4" d="M2.864 0.5C2.21628 0.515995 1.60132 0.788118 1.15388 1.25673C0.706447 1.72535 0.463038 2.35223 0.476999 3V9C0.463036 9.6476 0.706308 10.2743 1.15353 10.7429C1.60075 11.2115 2.21545 11.4837 2.863 11.5H18.136C18.7837 11.484 19.3987 11.2119 19.8461 10.7433C20.2935 10.2747 20.537 9.64777 20.523 9V3C20.537 2.35223 20.2935 1.72535 19.8461 1.25673C19.3987 0.788118 18.7837 0.515995 18.136 0.5H2.864ZM2.864 0H18.136C18.9135 0.0183534 19.6519 0.344655 20.189 0.907192C20.726 1.46973 21.0177 2.22248 21 3V9C21.0177 9.77752 20.726 10.5303 20.189 11.0928C19.6519 11.6553 18.9135 11.9816 18.136 12H2.864C2.08649 11.9816 1.34808 11.6553 0.811041 11.0928C0.274005 10.5303 -0.0177125 9.77752 -1.08994e-06 9V3C-0.0177125 2.22248 0.274005 1.46973 0.811041 0.907192C1.34808 0.344655 2.08649 0.0183534 2.864 0V0Z" fill="black"/>
<rect x="2" y="2" width="17" height="8" rx="1" fill="black"/>
<path opacity="0.4" d="M22 4C22.5304 4 23.0391 4.21071 23.4142 4.58579C23.7893 4.96086 24 5.46957 24 6C24 6.53043 23.7893 7.03914 23.4142 7.41421C23.0391 7.78929 22.5304 8 22 8V4Z" fill="black"/>
</g>
<defs>
<clipPath id="clip0_2002_342">
<rect width="24" height="12" fill="white"/>
</clipPath>
</defs>
</svg>
