<svg width="19" height="19" viewBox="0 0 19 19" fill="none" xmlns="http://www.w3.org/2000/svg">
<g clip-path="url(#clip0_92_412)">
<path fill-rule="evenodd" clip-rule="evenodd" d="M0.111816 4.47058C0.111816 3.31455 0.571048 2.20586 1.38849 1.38842C2.20592 0.570987 3.31461 0.111755 4.47064 0.111755H14.5295C15.6855 0.111755 16.7942 0.570987 17.6116 1.38842C18.4291 2.20586 18.8883 3.31455 18.8883 4.47058V14.5294C18.8883 15.6854 18.4291 16.7941 17.6116 17.6116C16.7942 18.429 15.6855 18.8882 14.5295 18.8882H4.47064C3.31461 18.8882 2.20592 18.429 1.38849 17.6116C0.571048 16.7941 0.111816 15.6854 0.111816 14.5294V4.47058Z" fill="url(#paint0_linear_92_412)"/>
<path d="M14.669 6.62183C14.7949 6.49591 14.8656 6.32513 14.8656 6.14705C14.8656 5.96898 14.7949 5.79819 14.669 5.67228C14.543 5.54636 14.3723 5.47562 14.1942 5.47562C14.0161 5.47562 13.8453 5.54636 13.7194 5.67228L7.48831 11.9047L5.28073 9.69581C5.15482 9.56989 4.98403 9.49915 4.80596 9.49915C4.62788 9.49915 4.4571 9.56989 4.33118 9.69581C4.20526 9.82172 4.13452 9.99251 4.13452 10.1706C4.13452 10.3487 4.20526 10.5194 4.33118 10.6454L7.01353 13.3277C7.07583 13.3902 7.14983 13.4397 7.2313 13.4735C7.31277 13.5073 7.4001 13.5247 7.48831 13.5247C7.57652 13.5247 7.66385 13.5073 7.74532 13.4735C7.82679 13.4397 7.90079 13.3902 7.96309 13.3277L14.669 6.62183Z" fill="url(#paint1_linear_92_412)"/>
</g>
<defs>
<linearGradient id="paint0_linear_92_412" x1="0.782405" y1="3.63234" x2="13.7408" y2="17.0951" gradientUnits="userSpaceOnUse">
<stop stop-color="#36DFF1"/>
<stop offset="1" stop-color="#2764E7"/>
</linearGradient>
<linearGradient id="paint1_linear_92_412" x1="6.1981" y1="6.09609" x2="10.9351" y2="21.3949" gradientUnits="userSpaceOnUse">
<stop stop-color="white"/>
<stop offset="1" stop-color="#B3E0FF"/>
</linearGradient>
<clipPath id="clip0_92_412">
<rect width="19" height="19" fill="white"/>
</clipPath>
</defs>
</svg>
