<svg width="35" height="35" viewBox="0 0 35 35" fill="none" xmlns="http://www.w3.org/2000/svg">
<g clip-path="url(#clip0_92_389)">
<path d="M29.6739 8.75H34.2391V35H4.56522V8.75H9.13043V6.5625H11.413V8.75H27.3913V6.5625H29.6739V8.75ZM31.9565 10.9375H29.6739V13.125H31.9565V10.9375ZM27.3913 10.9375H11.413V13.125H27.3913V10.9375ZM9.13043 10.9375H6.84783V13.125H9.13043V10.9375ZM6.84783 32.8125H31.9565V15.3125H6.84783V32.8125ZM4.56522 6.5625V4.375H2.28261V28.4375H0V2.1875H4.56522V0H6.84783V2.1875H22.8261V0H25.1087V2.1875H29.6739V4.375H25.1087V6.5625H22.8261V4.375H6.84783V6.5625H4.56522ZM11.413 24.0625V21.875H13.6957V24.0625H11.413ZM15.9783 24.0625V21.875H18.2609V24.0625H15.9783ZM20.5435 24.0625V21.875H22.8261V24.0625H20.5435ZM25.1087 24.0625V21.875H27.3913V24.0625H25.1087ZM11.413 28.4375V26.25H13.6957V28.4375H11.413ZM15.9783 28.4375V26.25H18.2609V28.4375H15.9783ZM20.5435 28.4375V26.25H22.8261V28.4375H20.5435ZM15.9783 19.6875V17.5H18.2609V19.6875H15.9783ZM20.5435 19.6875V17.5H22.8261V19.6875H20.5435ZM25.1087 19.6875V17.5H27.3913V19.6875H25.1087Z" fill="#1A446A"/>
</g>
<defs>
<clipPath id="clip0_92_389">
<rect width="35" height="35" fill="white"/>
</clipPath>
</defs>
</svg>
