<svg width="30" height="30" viewBox="0 0 30 30" fill="none" xmlns="http://www.w3.org/2000/svg">
<g clip-path="url(#clip0_2002_293)">
<path d="M25.4348 7.5H29.3478V30H3.91304V7.5H7.82609V5.625H9.78261V7.5H23.4783V5.625H25.4348V7.5ZM27.3913 9.375H25.4348V11.25H27.3913V9.375ZM23.4783 9.375H9.78261V11.25H23.4783V9.375ZM7.82609 9.375H5.86957V11.25H7.82609V9.375ZM5.86957 28.125H27.3913V13.125H5.86957V28.125ZM3.91304 5.625V3.75H1.95652V24.375H0V1.875H3.91304V0H5.86957V1.875H19.5652V0H21.5217V1.875H25.4348V3.75H21.5217V5.625H19.5652V3.75H5.86957V5.625H3.91304ZM9.78261 20.625V18.75H11.7391V20.625H9.78261ZM13.6957 20.625V18.75H15.6522V20.625H13.6957ZM17.6087 20.625V18.75H19.5652V20.625H17.6087ZM21.5217 20.625V18.75H23.4783V20.625H21.5217ZM9.78261 24.375V22.5H11.7391V24.375H9.78261ZM13.6957 24.375V22.5H15.6522V24.375H13.6957ZM17.6087 24.375V22.5H19.5652V24.375H17.6087ZM13.6957 16.875V15H15.6522V16.875H13.6957ZM17.6087 16.875V15H19.5652V16.875H17.6087ZM21.5217 16.875V15H23.4783V16.875H21.5217Z" fill="#494949"/>
</g>
<defs>
<clipPath id="clip0_2002_293">
<rect width="30" height="30" fill="white"/>
</clipPath>
</defs>
</svg>
