<svg width="145" height="124" viewBox="0 0 145 124" fill="none" xmlns="http://www.w3.org/2000/svg">
<g filter="url(#filter0_d_122_638)">
<path d="M72.5 88.7059L38.25 68.2353L72.5 116L141 40.9412L72.5 88.7059Z" fill="#1A446A"/>
<path d="M106.75 47.7647L72.5 0L4 75.0588L72.5 27.2941L106.75 47.7647Z" fill="#1A446A"/>
<path d="M72.5 40.9412L55.375 49.4706L72.5 58L89.625 49.4706L72.5 40.9412Z" fill="#1A446A"/>
<path d="M55.375 53.7353L72.5 62.2647L89.625 53.7353V58L72.5 66.5294L55.375 58V53.7353Z" fill="#1A446A"/>
<path d="M55.375 62.2647L72.5 70.7941L89.625 62.2647V66.5294L72.5 75.0588L55.375 66.5294V62.2647Z" fill="#1A446A"/>
</g>
<defs>
<filter id="filter0_d_122_638" x="0" y="0" width="145" height="124" filterUnits="userSpaceOnUse" color-interpolation-filters="sRGB">
<feFlood flood-opacity="0" result="BackgroundImageFix"/>
<feColorMatrix in="SourceAlpha" type="matrix" values="0 0 0 0 0 0 0 0 0 0 0 0 0 0 0 0 0 0 127 0" result="hardAlpha"/>
<feOffset dy="4"/>
<feGaussianBlur stdDeviation="2"/>
<feComposite in2="hardAlpha" operator="out"/>
<feColorMatrix type="matrix" values="0 0 0 0 0 0 0 0 0 0 0 0 0 0 0 0 0 0 0.25 0"/>
<feBlend mode="normal" in2="BackgroundImageFix" result="effect1_dropShadow_122_638"/>
<feBlend mode="normal" in="SourceGraphic" in2="effect1_dropShadow_122_638" result="shape"/>
</filter>
</defs>
</svg>
