<svg width="34" height="34" viewBox="0 0 34 34" fill="none" xmlns="http://www.w3.org/2000/svg">
<path d="M31.9838 2.75942H26.3796C26.2673 2.75942 26.1597 2.804 26.0803 2.88337C26.0009 2.96274 25.9563 3.07038 25.9563 3.18263C25.9563 3.25474 25.9791 3.31927 26.0104 3.3781V6.60248C26.0106 6.72065 25.9874 6.83768 25.9422 6.94688C25.8971 7.05607 25.8308 7.15529 25.7472 7.23884C25.6637 7.3224 25.5645 7.38866 25.4553 7.43382C25.3461 7.47898 25.229 7.50217 25.1109 7.50204H23.3668C23.2571 7.50204 23.1485 7.48044 23.0472 7.43848C22.9459 7.39651 22.8539 7.33501 22.7763 7.25747C22.6988 7.17993 22.6373 7.08787 22.5953 6.98656C22.5533 6.88525 22.5317 6.77666 22.5317 6.66701V3.43029C22.5874 3.35951 22.6187 3.27264 22.6209 3.18263C22.6211 3.12702 22.6102 3.07193 22.589 3.02052C22.5678 2.96912 22.5366 2.92242 22.4973 2.88309C22.4579 2.84377 22.4112 2.8126 22.3598 2.79138C22.3084 2.77015 22.2533 2.75929 22.1977 2.75942H10.901C10.7888 2.75942 10.6811 2.804 10.6018 2.88337C10.5224 2.96274 10.4778 3.07038 10.4778 3.18263C10.4778 3.2481 10.4958 3.30788 10.5224 3.36387V6.62525C10.5224 6.74052 10.4997 6.85466 10.4556 6.96115C10.4115 7.06764 10.3468 7.1644 10.2653 7.24591C10.1838 7.32741 10.0871 7.39207 9.98057 7.43618C9.87407 7.48029 9.75994 7.50299 9.64467 7.50299H8.09606C7.861 7.50299 7.63557 7.40962 7.46937 7.24341C7.30316 7.0772 7.20978 6.85177 7.20978 6.61671V3.38759C7.24755 3.32579 7.26818 3.25504 7.26956 3.18263C7.26969 3.12702 7.25883 3.07193 7.2376 3.02052C7.21638 2.96912 7.18521 2.92242 7.14589 2.88309C7.10656 2.84377 7.05986 2.8126 7.00845 2.79138C6.95705 2.77015 6.90196 2.75929 6.84635 2.75942H0.941314C0.691903 2.75967 0.452766 2.85879 0.276317 3.03506C0.0998675 3.21133 0.000502212 3.45037 0 3.69978V31.7247C0 32.2447 0.422263 32.667 0.941314 32.667H31.9838C32.2334 32.6665 32.4725 32.567 32.6488 32.3903C32.8251 32.2137 32.9242 31.9743 32.9242 31.7247V3.69978C32.9237 3.45053 32.8244 3.21164 32.6482 3.0354C32.4719 2.85915 32.233 2.75992 31.9838 2.75942ZM31.9838 31.8206H0.941314C0.928772 31.8206 0.916355 31.8181 0.90478 31.8133C0.893205 31.8084 0.882702 31.8014 0.873878 31.7924C0.865054 31.7835 0.858085 31.773 0.853372 31.7613C0.84866 31.7497 0.846298 31.7373 0.846423 31.7247V10.5898H32.0777V31.7238C32.078 31.7363 32.0758 31.7488 32.0712 31.7605C32.0666 31.7721 32.0597 31.7828 32.051 31.7918C32.0422 31.8008 32.0318 31.808 32.0203 31.8129C32.0087 31.8178 31.9963 31.8205 31.9838 31.8206Z" fill="#1A446A"/>
<path d="M8.98034 6.53796C9.21377 6.53796 9.40355 6.34817 9.40355 6.11474V0.423212C9.40355 0.367635 9.39261 0.312602 9.37134 0.261256C9.35007 0.209909 9.3189 0.163255 9.2796 0.123956C9.2403 0.0846571 9.19364 0.0534836 9.1423 0.0322152C9.09095 0.0109468 9.03592 0 8.98034 0C8.92476 0 8.86973 0.0109468 8.81838 0.0322152C8.76704 0.0534836 8.72038 0.0846571 8.68108 0.123956C8.64179 0.163255 8.61061 0.209909 8.58934 0.261256C8.56808 0.312602 8.55713 0.367635 8.55713 0.423212V6.11569C8.55713 6.34912 8.74691 6.53796 8.98034 6.53796ZM24.309 6.53796C24.5424 6.53796 24.7322 6.34817 24.7322 6.11474V0.423212C24.7322 0.367635 24.7212 0.312602 24.7 0.261256C24.6787 0.209909 24.6475 0.163255 24.6082 0.123956C24.5689 0.0846571 24.5223 0.0534836 24.4709 0.0322152C24.4196 0.0109468 24.3645 0 24.309 0C24.2534 0 24.1983 0.0109468 24.147 0.0322152C24.0957 0.0534836 24.049 0.0846571 24.0097 0.123956C23.9704 0.163255 23.9392 0.209909 23.918 0.261256C23.8967 0.312602 23.8857 0.367635 23.8857 0.423212V6.11569C23.8857 6.34912 24.0746 6.53796 24.309 6.53796Z" fill="#1A446A"/>
<path d="M6.7931 16.992C8.08126 16.992 9.12551 15.9478 9.12551 14.6596C9.12551 13.3715 8.08126 12.3272 6.7931 12.3272C5.50495 12.3272 4.46069 13.3715 4.46069 14.6596C4.46069 15.9478 5.50495 16.992 6.7931 16.992Z" fill="#1A446A"/>
<path d="M13.4962 16.992C14.7844 16.992 15.8286 15.9478 15.8286 14.6596C15.8286 13.3715 14.7844 12.3272 13.4962 12.3272C12.2081 12.3272 11.1638 13.3715 11.1638 14.6596C11.1638 15.9478 12.2081 16.992 13.4962 16.992Z" fill="#1A446A"/>
<path d="M20.1984 16.992C21.4865 16.992 22.5308 15.9478 22.5308 14.6596C22.5308 13.3715 21.4865 12.3272 20.1984 12.3272C18.9102 12.3272 17.866 13.3715 17.866 14.6596C17.866 15.9478 18.9102 16.992 20.1984 16.992Z" fill="#1A446A"/>
<path d="M6.7931 23.4873C8.08126 23.4873 9.12551 22.443 9.12551 21.1549C9.12551 19.8667 8.08126 18.8225 6.7931 18.8225C5.50495 18.8225 4.46069 19.8667 4.46069 21.1549C4.46069 22.443 5.50495 23.4873 6.7931 23.4873Z" fill="#1A446A"/>
<path d="M13.4962 23.4873C14.7844 23.4873 15.8286 22.443 15.8286 21.1549C15.8286 19.8667 14.7844 18.8225 13.4962 18.8225C12.2081 18.8225 11.1638 19.8667 11.1638 21.1549C11.1638 22.443 12.2081 23.4873 13.4962 23.4873Z" fill="#1A446A"/>
<path d="M20.1984 23.4873C21.4865 23.4873 22.5308 22.443 22.5308 21.1549C22.5308 19.8667 21.4865 18.8225 20.1984 18.8225C18.9102 18.8225 17.866 19.8667 17.866 21.1549C17.866 22.443 18.9102 23.4873 20.1984 23.4873Z" fill="#1A446A"/>
<path d="M6.7931 29.9825C8.08126 29.9825 9.12551 28.9383 9.12551 27.6501C9.12551 26.362 8.08126 25.3177 6.7931 25.3177C5.50495 25.3177 4.46069 26.362 4.46069 27.6501C4.46069 28.9383 5.50495 29.9825 6.7931 29.9825Z" fill="#1A446A"/>
<path d="M13.4962 29.9825C14.7844 29.9825 15.8286 28.9383 15.8286 27.6501C15.8286 26.362 14.7844 25.3177 13.4962 25.3177C12.2081 25.3177 11.1638 26.362 11.1638 27.6501C11.1638 28.9383 12.2081 29.9825 13.4962 29.9825Z" fill="#1A446A"/>
<path d="M20.1984 29.9825C21.4865 29.9825 22.5308 28.9383 22.5308 27.6501C22.5308 26.362 21.4865 25.3177 20.1984 25.3177C18.9102 25.3177 17.866 26.362 17.866 27.6501C17.866 28.9383 18.9102 29.9825 20.1984 29.9825Z" fill="#1A446A"/>
<path d="M26.744 16.992C28.0322 16.992 29.0764 15.9478 29.0764 14.6596C29.0764 13.3715 28.0322 12.3272 26.744 12.3272C25.4559 12.3272 24.4116 13.3715 24.4116 14.6596C24.4116 15.9478 25.4559 16.992 26.744 16.992Z" fill="#1A446A"/>
<path d="M26.744 23.4873C28.0322 23.4873 29.0764 22.443 29.0764 21.1549C29.0764 19.8667 28.0322 18.8225 26.744 18.8225C25.4559 18.8225 24.4116 19.8667 24.4116 21.1549C24.4116 22.443 25.4559 23.4873 26.744 23.4873Z" fill="#1A446A"/>
<path d="M26.744 29.9825C28.0322 29.9825 29.0764 28.9383 29.0764 27.6501C29.0764 26.362 28.0322 25.3177 26.744 25.3177C25.4559 25.3177 24.4116 26.362 24.4116 27.6501C24.4116 28.9383 25.4559 29.9825 26.744 29.9825Z" fill="#1A446A"/>
</svg>
