<svg width="30" height="30" viewBox="0 0 30 30" fill="none" xmlns="http://www.w3.org/2000/svg">
<path d="M28.8909 2.49259H23.8286C23.7272 2.49259 23.6299 2.53286 23.5583 2.60455C23.4866 2.67625 23.4463 2.77348 23.4463 2.87487C23.4463 2.94001 23.4669 2.9983 23.4951 3.05144V5.96401C23.4953 6.07075 23.4743 6.17647 23.4335 6.2751C23.3927 6.37374 23.3329 6.46336 23.2574 6.53884C23.1819 6.61432 23.0923 6.67417 22.9937 6.71496C22.895 6.75576 22.7893 6.7767 22.6826 6.77658H21.1071C21.0081 6.77658 20.91 6.75707 20.8185 6.71917C20.727 6.68126 20.6438 6.6257 20.5738 6.55566C20.5037 6.48562 20.4482 6.40247 20.4103 6.31095C20.3724 6.21944 20.3529 6.12135 20.3529 6.0223V3.09859C20.4031 3.03465 20.4314 2.95618 20.4334 2.87487C20.4335 2.82464 20.4237 2.77488 20.4046 2.72844C20.3854 2.68201 20.3572 2.63982 20.3217 2.6043C20.2862 2.56878 20.244 2.54063 20.1976 2.52145C20.1511 2.50228 20.1014 2.49247 20.0511 2.49259H9.84686C9.74547 2.49259 9.64823 2.53286 9.57654 2.60455C9.50485 2.67625 9.46457 2.77348 9.46457 2.87487C9.46457 2.93401 9.48086 2.98801 9.50486 3.03859V5.98459C9.50486 6.0887 9.48435 6.1918 9.4445 6.288C9.40466 6.38419 9.34626 6.4716 9.27263 6.54522C9.19901 6.61884 9.11161 6.67724 9.01541 6.71709C8.91922 6.75693 8.81612 6.77744 8.712 6.77744H7.31314C7.10082 6.77744 6.89719 6.6931 6.74705 6.54296C6.59692 6.39282 6.51257 6.1892 6.51257 5.97687V3.06001C6.54668 3.00419 6.56532 2.94028 6.56657 2.87487C6.56668 2.82464 6.55687 2.77488 6.5377 2.72844C6.51853 2.68201 6.49038 2.63982 6.45485 2.6043C6.41933 2.56878 6.37715 2.54063 6.33071 2.52145C6.28428 2.50228 6.23452 2.49247 6.18429 2.49259H0.850286C0.624994 2.49281 0.408982 2.58235 0.249596 2.74158C0.09021 2.9008 0.000453647 3.11672 0 3.34201V28.6569C0 29.1266 0.381428 29.508 0.850286 29.508H28.8909C29.1163 29.5076 29.3323 29.4177 29.4916 29.2581C29.6508 29.0985 29.7403 28.8823 29.7403 28.6569V3.34201C29.7398 3.11687 29.6502 2.90108 29.491 2.74188C29.3318 2.58268 29.116 2.49304 28.8909 2.49259ZM28.8909 28.7434H0.850286C0.838957 28.7434 0.827741 28.7412 0.817285 28.7368C0.806829 28.7325 0.797342 28.7261 0.789371 28.718C0.781401 28.71 0.775105 28.7004 0.770848 28.6899C0.766591 28.6794 0.764458 28.6682 0.764571 28.6569V9.56573H28.9757V28.656C28.9759 28.6673 28.9739 28.6786 28.9698 28.6891C28.9656 28.6997 28.9594 28.7093 28.9515 28.7174C28.9436 28.7256 28.9342 28.732 28.9238 28.7365C28.9134 28.741 28.9022 28.7433 28.8909 28.7434Z" fill="#494949"/>
<path d="M8.11202 5.90571C8.32288 5.90571 8.49431 5.73429 8.49431 5.52343V0.382286C8.49431 0.332083 8.48442 0.282373 8.46521 0.235991C8.446 0.18961 8.41784 0.147468 8.38234 0.111969C8.34684 0.0764705 8.3047 0.0483115 8.25832 0.0290999C8.21194 0.00988822 8.16222 0 8.11202 0C8.06182 0 8.01211 0.00988822 7.96573 0.0290999C7.91935 0.0483115 7.8772 0.0764705 7.84171 0.111969C7.80621 0.147468 7.77805 0.18961 7.75884 0.235991C7.73962 0.282373 7.72974 0.332083 7.72974 0.382286V5.52429C7.72974 5.73514 7.90116 5.90571 8.11202 5.90571ZM21.9583 5.90571C22.1692 5.90571 22.3406 5.73429 22.3406 5.52343V0.382286C22.3406 0.332083 22.3307 0.282373 22.3115 0.235991C22.2923 0.18961 22.2641 0.147468 22.2286 0.111969C22.1931 0.0764705 22.151 0.0483115 22.1046 0.0290999C22.0582 0.00988822 22.0085 0 21.9583 0C21.9081 0 21.8584 0.00988822 21.812 0.0290999C21.7656 0.0483115 21.7235 0.0764705 21.688 0.111969C21.6525 0.147468 21.6243 0.18961 21.6051 0.235991C21.5859 0.282373 21.576 0.332083 21.576 0.382286V5.52429C21.576 5.73514 21.7466 5.90571 21.9583 5.90571Z" fill="#494949"/>
<path d="M6.1364 15.3488C7.29998 15.3488 8.24326 14.4056 8.24326 13.242C8.24326 12.0784 7.29998 11.1351 6.1364 11.1351C4.97281 11.1351 4.02954 12.0784 4.02954 13.242C4.02954 14.4056 4.97281 15.3488 6.1364 15.3488Z" fill="#494949"/>
<path d="M12.1911 15.3488C13.3547 15.3488 14.2979 14.4056 14.2979 13.242C14.2979 12.0784 13.3547 11.1351 12.1911 11.1351C11.0275 11.1351 10.0842 12.0784 10.0842 13.242C10.0842 14.4056 11.0275 15.3488 12.1911 15.3488Z" fill="#494949"/>
<path d="M18.245 15.3488C19.4086 15.3488 20.3519 14.4056 20.3519 13.242C20.3519 12.0784 19.4086 11.1351 18.245 11.1351C17.0815 11.1351 16.1382 12.0784 16.1382 13.242C16.1382 14.4056 17.0815 15.3488 18.245 15.3488Z" fill="#494949"/>
<path d="M6.1364 21.216C7.29998 21.216 8.24326 20.2727 8.24326 19.1091C8.24326 17.9456 7.29998 17.0023 6.1364 17.0023C4.97281 17.0023 4.02954 17.9456 4.02954 19.1091C4.02954 20.2727 4.97281 21.216 6.1364 21.216Z" fill="#494949"/>
<path d="M12.1911 21.216C13.3547 21.216 14.2979 20.2727 14.2979 19.1091C14.2979 17.9456 13.3547 17.0023 12.1911 17.0023C11.0275 17.0023 10.0842 17.9456 10.0842 19.1091C10.0842 20.2727 11.0275 21.216 12.1911 21.216Z" fill="#494949"/>
<path d="M18.245 21.216C19.4086 21.216 20.3519 20.2727 20.3519 19.1091C20.3519 17.9456 19.4086 17.0023 18.245 17.0023C17.0815 17.0023 16.1382 17.9456 16.1382 19.1091C16.1382 20.2727 17.0815 21.216 18.245 21.216Z" fill="#494949"/>
<path d="M6.1364 27.0831C7.29998 27.0831 8.24326 26.1399 8.24326 24.9763C8.24326 23.8127 7.29998 22.8694 6.1364 22.8694C4.97281 22.8694 4.02954 23.8127 4.02954 24.9763C4.02954 26.1399 4.97281 27.0831 6.1364 27.0831Z" fill="#494949"/>
<path d="M12.1911 27.0831C13.3547 27.0831 14.2979 26.1399 14.2979 24.9763C14.2979 23.8127 13.3547 22.8694 12.1911 22.8694C11.0275 22.8694 10.0842 23.8127 10.0842 24.9763C10.0842 26.1399 11.0275 27.0831 12.1911 27.0831Z" fill="#494949"/>
<path d="M18.245 27.0831C19.4086 27.0831 20.3519 26.1399 20.3519 24.9763C20.3519 23.8127 19.4086 22.8694 18.245 22.8694C17.0815 22.8694 16.1382 23.8127 16.1382 24.9763C16.1382 26.1399 17.0815 27.0831 18.245 27.0831Z" fill="#494949"/>
<path d="M24.1576 15.3488C25.3212 15.3488 26.2645 14.4056 26.2645 13.242C26.2645 12.0784 25.3212 11.1351 24.1576 11.1351C22.9941 11.1351 22.0508 12.0784 22.0508 13.242C22.0508 14.4056 22.9941 15.3488 24.1576 15.3488Z" fill="#494949"/>
<path d="M24.1576 21.216C25.3212 21.216 26.2645 20.2727 26.2645 19.1091C26.2645 17.9456 25.3212 17.0023 24.1576 17.0023C22.9941 17.0023 22.0508 17.9456 22.0508 19.1091C22.0508 20.2727 22.9941 21.216 24.1576 21.216Z" fill="#494949"/>
<path d="M24.1576 27.0831C25.3212 27.0831 26.2645 26.1399 26.2645 24.9763C26.2645 23.8127 25.3212 22.8694 24.1576 22.8694C22.9941 22.8694 22.0508 23.8127 22.0508 24.9763C22.0508 26.1399 22.9941 27.0831 24.1576 27.0831Z" fill="#494949"/>
</svg>
