<svg width="12" height="12" viewBox="0 0 12 12" fill="none" xmlns="http://www.w3.org/2000/svg">
<path d="M10.4196 0.0769552L0.674556 4.57396C0.437573 4.6793 0.24377 4.86256 0.125348 5.09329C0.00692595 5.32401 -0.0289847 5.58832 0.0235827 5.84227C0.0761501 6.09623 0.214031 6.32456 0.414314 6.48932C0.614598 6.65407 0.865226 6.74534 1.12456 6.74796H5.24756V10.871C5.25017 11.1303 5.34144 11.3809 5.50619 11.5812C5.67095 11.7815 5.89928 11.9194 6.15324 11.9719C6.4072 12.0245 6.6715 11.9886 6.90222 11.8702C7.13295 11.7517 7.31621 11.5579 7.42156 11.321L11.9216 1.57596C11.9983 1.36658 12.0136 1.13962 11.9656 0.921846C11.9176 0.704071 11.8083 0.50457 11.6506 0.346882C11.4929 0.189195 11.2934 0.0799011 11.0757 0.0318964C10.8579 -0.0161084 10.6309 -0.000820801 10.4216 0.0759552L10.4196 0.0769552Z" fill="black"/>
</svg>
