<svg width="35" height="35" viewBox="0 0 35 35" fill="none" xmlns="http://www.w3.org/2000/svg">
<g clip-path="url(#clip0_146_1270)">
<path d="M12.25 22.8147L22.75 12.3147M12.25 12.369V12.3935M22.75 22.8935V22.9215M1.75 5.25C1.75 4.32174 2.11875 3.4315 2.77513 2.77513C3.4315 2.11875 4.32174 1.75 5.25 1.75H29.75C30.6783 1.75 31.5685 2.11875 32.2249 2.77513C32.8813 3.4315 33.25 4.32174 33.25 5.25V29.75C33.25 30.6783 32.8813 31.5685 32.2249 32.2249C31.5685 32.8813 30.6783 33.25 29.75 33.25H5.25C4.32174 33.25 3.4315 32.8813 2.77513 32.2249C2.11875 31.5685 1.75 30.6783 1.75 29.75V5.25Z" stroke="#1A446A" stroke-width="2" stroke-linecap="round" stroke-linejoin="round"/>
</g>
<defs>
<clipPath id="clip0_146_1270">
<rect width="35" height="35" fill="white"/>
</clipPath>
</defs>
</svg>
