<svg width="30" height="30" viewBox="0 0 30 30" fill="none" xmlns="http://www.w3.org/2000/svg">
<g clip-path="url(#clip0_2002_146)">
<path d="M10.5 19.5555L19.5 10.5555M10.5 10.602V10.623M19.5 19.623V19.647M1.5 4.5C1.5 3.70435 1.81607 2.94129 2.37868 2.37868C2.94129 1.81607 3.70435 1.5 4.5 1.5H25.5C26.2956 1.5 27.0587 1.81607 27.6213 2.37868C28.1839 2.94129 28.5 3.70435 28.5 4.5V25.5C28.5 26.2956 28.1839 27.0587 27.6213 27.6213C27.0587 28.1839 26.2956 28.5 25.5 28.5H4.5C3.70435 28.5 2.94129 28.1839 2.37868 27.6213C1.81607 27.0587 1.5 26.2956 1.5 25.5V4.5Z" stroke="#494949" stroke-width="2" stroke-linecap="round" stroke-linejoin="round"/>
</g>
<defs>
<clipPath id="clip0_2002_146">
<rect width="30" height="30" fill="white"/>
</clipPath>
</defs>
</svg>
