<svg width="35" height="35" viewBox="0 0 35 35" fill="none" xmlns="http://www.w3.org/2000/svg">
<path d="M5.97001 34.9992H29.0495C33.0232 34.9992 35 33.0225 35 29.1064V5.89282C35 1.97671 33.0232 0 29.0495 0H5.97001C2.01569 0 0 1.95805 0 5.89282V29.1072C0 33.0419 2.01569 34.9992 5.97001 34.9992ZM6.02679 31.9396C4.12628 31.9396 3.06125 30.9322 3.06125 28.9547V6.04693C3.06125 4.06941 4.12628 3.06199 6.02679 3.06199H28.9927C30.8745 3.06199 31.9396 4.06941 31.9396 6.04693V28.9531C31.9396 30.9306 30.8745 31.938 28.9927 31.938L6.02679 31.9396ZM17.1297 21.4072C18.099 21.4072 18.6693 20.7988 18.6693 20.0575V19.8304C18.6693 18.7654 19.2971 18.0808 20.6087 17.2064C22.4524 15.9897 23.764 14.8866 23.764 12.6057C23.764 9.4504 20.951 7.73893 17.7186 7.73893C14.4684 7.73893 12.3196 9.29791 11.7875 11.0467C11.6919 11.348 11.6408 11.6617 11.6358 11.9779C11.6358 12.8336 12.301 13.2903 12.928 13.2903C14.0117 13.2903 14.1828 12.7192 14.7912 11.9973C15.4182 10.951 16.3307 10.324 17.605 10.324C19.3352 10.324 20.4562 11.3136 20.4562 12.7574C20.4562 14.0503 19.658 14.6781 18.0041 15.8372C16.6357 16.7878 15.6088 17.7952 15.6088 19.6584V19.9058C15.6088 20.8946 16.1604 21.4072 17.1297 21.4072ZM17.0916 27.0729C18.1947 27.0729 19.1446 26.1985 19.1446 25.0954C19.1446 23.9922 18.2134 23.1187 17.0916 23.1187C15.9698 23.1187 15.0386 24.0117 15.0386 25.0954C15.0386 26.179 15.9892 27.0729 17.0916 27.0729Z" fill="#1A446A"/>
</svg>
