<svg width="30" height="30" viewBox="0 0 30 30" fill="none" xmlns="http://www.w3.org/2000/svg">
<path d="M5.11715 29.9993H24.8995C28.3056 29.9993 30 28.305 30 24.9483V5.05098C30 1.69432 28.3056 0 24.8995 0H5.11715C1.72773 0 0 1.67833 0 5.05098V24.949C0 28.3217 1.72773 29.9993 5.11715 29.9993ZM5.16582 27.3768C3.53681 27.3768 2.62393 26.5133 2.62393 24.8183V5.18308C2.62393 3.48806 3.53681 2.62457 5.16582 2.62457H24.8509C26.4639 2.62457 27.3768 3.48806 27.3768 5.18308V24.8169C27.3768 26.5119 26.4639 27.3754 24.8509 27.3754L5.16582 27.3768ZM14.6826 18.349C15.5135 18.349 16.0022 17.8276 16.0022 17.1921V16.9974C16.0022 16.0846 16.5404 15.4978 17.6646 14.7483C19.2449 13.7054 20.3692 12.7599 20.3692 10.8049C20.3692 8.10035 17.958 6.63337 15.1874 6.63337C12.4014 6.63337 10.5597 7.96964 10.1036 9.4686C10.0216 9.72689 9.9778 9.99578 9.97358 10.2667C9.97358 11.0002 10.5437 11.3917 11.0811 11.3917C12.01 11.3917 12.1567 10.9022 12.6782 10.2834C13.2156 9.38656 13.9978 8.84913 15.09 8.84913C16.573 8.84913 17.5339 9.69733 17.5339 10.9349C17.5339 12.0431 16.8498 12.5812 15.4321 13.5747C14.2592 14.3896 13.379 15.2531 13.379 16.8501V17.0621C13.379 17.9096 13.8518 18.349 14.6826 18.349ZM14.6499 23.2053C15.5955 23.2053 16.4097 22.4558 16.4097 21.5103C16.4097 20.5648 15.6115 19.816 14.6499 19.816C13.6884 19.816 12.8902 20.5815 12.8902 21.5103C12.8902 22.4392 13.7051 23.2053 14.6499 23.2053Z" fill="#494949"/>
</svg>
