<svg width="17" height="12" viewBox="0 0 17 12" fill="none" xmlns="http://www.w3.org/2000/svg">
<g clip-path="url(#clip0_2002_338)">
<path d="M8.4911 11.8094C8.54046 11.8128 8.58998 11.8057 8.63636 11.7884C8.68274 11.7712 8.72495 11.7444 8.76014 11.7096C8.83614 11.6406 10.529 9.93847 10.913 9.59947C10.9616 9.52548 10.9913 9.44056 10.9992 9.3524C10.9868 9.25514 10.939 9.16584 10.8651 9.10142C10.1772 8.58452 9.34007 8.30503 8.47962 8.30503C7.61918 8.30503 6.78201 8.58452 6.09413 9.10142C6.03913 9.17474 6.00452 9.26135 5.99403 9.3524C5.98761 9.39872 5.99357 9.44601 6.01112 9.48936C6.02867 9.53271 6.05729 9.57066 6.09413 9.59947C6.18513 9.69947 8.17808 11.6286 8.27308 11.7096C8.36808 11.7906 8.3701 11.8094 8.4911 11.8094Z" fill="black"/>
<path d="M3.49994 6.48746C3.50743 6.5759 3.54607 6.65883 3.60895 6.72147L4.76398 8.02152C4.82506 8.07925 4.90588 8.11136 4.98993 8.11136C5.07398 8.11136 5.15492 8.07925 5.216 8.02152C6.08671 7.13465 7.27317 6.62877 8.51593 6.61453C9.75688 6.63731 10.9404 7.14187 11.816 8.02152C11.8768 8.07781 11.9566 8.10904 12.0395 8.10904C12.1224 8.10904 12.2022 8.07781 12.263 8.02152L13.425 6.72147C13.4764 6.65388 13.506 6.57227 13.5099 6.48746C13.5148 6.44363 13.5098 6.39926 13.4951 6.3577C13.4803 6.31613 13.4564 6.27846 13.425 6.24747C12.7986 5.57319 12.04 5.03542 11.1964 4.66763C10.3527 4.29985 9.44234 4.11002 8.52203 4.11002C7.60173 4.11002 6.69122 4.29985 5.8476 4.66763C5.00397 5.03542 4.24531 5.57319 3.61896 6.24747C3.53696 6.36447 3.49994 6.35446 3.49994 6.48746Z" fill="black"/>
<path d="M0.597015 3.39353C0.534015 3.49353 0.49704 3.51751 0.49704 3.63951C0.505882 3.72824 0.540638 3.81235 0.597015 3.88145C0.597015 3.88145 1.564 4.92555 1.811 5.10655C1.87787 5.1578 1.95979 5.18553 2.04404 5.18553C2.12828 5.18553 2.21009 5.1578 2.27695 5.10655C3.95227 3.49439 6.1869 2.59373 8.51193 2.59373C10.837 2.59373 13.0717 3.49439 14.747 5.10655C14.747 5.10655 15.009 5.29655 15.197 5.10655C15.385 4.91655 16.3969 3.88145 16.3969 3.88145C16.4537 3.8126 16.4887 3.72836 16.497 3.63951C16.5016 3.59346 16.4948 3.54699 16.4774 3.50413C16.46 3.46127 16.4323 3.42334 16.3969 3.39353C14.2798 1.34012 11.4464 0.191751 8.49704 0.191751C5.54767 0.191751 2.71416 1.34012 0.597015 3.39353V3.39353Z" fill="black"/>
</g>
<defs>
<clipPath id="clip0_2002_338">
<rect width="16" height="11.619" fill="white" transform="translate(0.5 0.1905)"/>
</clipPath>
</defs>
</svg>
